<?xml version="1.0" encoding="utf-8"?>
<!-- Generator: Adobe Illustrator 18.1.1, SVG Export Plug-In . SVG Version: 6.00 Build 0)  -->
<svg version="1.1" id="Layer_1" xmlns="http://www.w3.org/2000/svg" xmlns:xlink="http://www.w3.org/1999/xlink" x="0px" y="0px"
	 viewBox="0 704.6 2000 590.9" enable-background="new 0 704.6 2000 590.9" xml:space="preserve">
<path fill="#485AFF" d="M310.4,704.6C147.3,704.6,15,836.8,15,1000c0,163.2,132.3,295.4,295.4,295.4
	c163.2,0,295.4-132.3,295.4-295.4C605.9,836.9,473.6,704.6,310.4,704.6L310.4,704.6z M445.9,1130.7c-5.3,8.7-16.6,11.4-25.3,6.1
	c-69.4-42.4-156.7-52-259.5-28.5c-9.9,2.3-19.8-3.9-22-13.8c-2.3-9.9,3.9-19.8,13.9-22c112.5-25.7,209.1-14.7,286.9,32.9
	C448.5,1110.7,451.2,1122,445.9,1130.7L445.9,1130.7z M482.1,1050.2c-6.7,10.8-20.9,14.2-31.7,7.6C371,1009,249.9,994.9,156,1023.4
	c-12.2,3.7-25-3.2-28.7-15.3c-3.7-12.2,3.2-25,15.4-28.7c107.3-32.6,240.7-16.8,331.9,39.3C485.3,1025.2,488.7,1039.4,482.1,1050.2
	L482.1,1050.2z M485.2,966.5c-95.2-56.6-252.3-61.8-343.2-34.2c-14.6,4.4-30-3.8-34.5-18.4c-4.4-14.6,3.8-30,18.4-34.5
	c104.4-31.7,277.8-25.6,387.5,39.5c13.1,7.8,17.4,24.8,9.7,37.9C515.3,969.9,498.3,974.3,485.2,966.5L485.2,966.5z"/>
<path fill="#485AFF" d="M818.8,977.3c-51-12.2-60.1-20.7-60.1-38.6c0-16.9,16-28.4,39.7-28.4c23,0,45.8,8.7,69.7,26.5
	c0.7,0.5,1.6,0.8,2.5,0.6c0.9-0.1,1.7-0.6,2.2-1.4l24.9-35.1c1-1.4,0.7-3.4-0.6-4.5c-28.5-22.8-60.5-33.9-98-33.9
	c-55.1,0-93.5,33.1-93.5,80.3c0,50.7,33.2,68.7,90.5,82.5c48.8,11.2,57,20.7,57,37.5c0,18.7-16.7,30.3-43.5,30.3
	c-29.8,0-54.1-10-81.2-33.6c-0.7-0.6-1.6-0.8-2.5-0.8c-0.9,0.1-1.7,0.5-2.3,1.2l-27.9,33.2c-1.2,1.4-1,3.4,0.3,4.6
	c31.6,28.2,70.5,43.1,112.4,43.1c59.3,0,97.7-32.4,97.7-82.6c0.1-42.4-25.3-65.8-87.4-80.9L818.8,977.3z"/>
<path fill="#485AFF" d="M1040.5,927c-25.7,0-46.8,10.1-64.2,30.9v-23.4c0-1.8-1.5-3.3-3.3-3.3h-45.7c-1.8,0-3.3,1.5-3.3,3.3v259.7
	c0,1.8,1.5,3.3,3.3,3.3H973c1.8,0,3.3-1.5,3.3-3.3v-82c17.4,19.5,38.5,29.1,64.2,29.1c47.8,0,96.2-36.8,96.2-107.1
	C1136.8,963.8,1088.4,927,1040.5,927L1040.5,927z M1083.6,1034.2c0,35.8-22.1,60.8-53.7,60.8c-31.2,0-54.8-26.1-54.8-60.8
	c0-34.7,23.6-60.8,54.8-60.8C1061,973.3,1083.6,998.9,1083.6,1034.2L1083.6,1034.2z"/>
<path fill="#485AFF" d="M1260.7,927c-61.6,0-109.8,47.4-109.8,107.9c0,59.9,47.9,106.8,109,106.8c61.8,0,110.1-47.2,110.1-107.5
	C1370.1,974.1,1322.1,927,1260.7,927L1260.7,927z M1260.7,1095.3c-32.7,0-57.4-26.3-57.4-61.2c0-35,23.8-60.4,56.7-60.4
	c33,0,57.8,26.3,57.8,61.2C1317.8,1069.9,1293.8,1095.3,1260.7,1095.3L1260.7,1095.3z"/>
<path fill="#485AFF" d="M1501.6,931.2h-50.3v-51.4c0-1.8-1.5-3.3-3.3-3.3h-45.7c-1.8,0-3.3,1.5-3.3,3.3v51.4h-22
	c-1.8,0-3.3,1.5-3.3,3.3v39.3c0,1.8,1.5,3.3,3.3,3.3h22v101.6c0,41,20.4,61.9,60.7,61.9c16.4,0,30-3.4,42.8-10.6
	c1-0.6,1.7-1.7,1.7-2.9v-37.4c0-1.2-0.6-2.2-1.6-2.8c-1-0.6-2.2-0.7-3.3-0.2c-8.8,4.4-17.3,6.5-26.8,6.5c-14.7,0-21.2-6.7-21.2-21.6
	v-94.4h50.3c1.8,0,3.3-1.5,3.3-3.3v-39.2C1505,932.7,1503.5,931.2,1501.6,931.2L1501.6,931.2z"/>
<path fill="#485AFF" d="M1676.7,931.4v-6.3c0-18.6,7.1-26.8,23.1-26.8c9.5,0,17.2,1.9,25.7,4.7c1.1,0.3,2.2,0.2,3-0.5
	c0.9-0.6,1.4-1.6,1.4-2.7v-38.5c0-1.5-0.9-2.8-2.4-3.2c-9-2.7-20.6-5.5-38-5.5c-42.2,0-64.5,23.8-64.5,68.7v9.7h-21.9
	c-1.8,0-3.4,1.5-3.4,3.3v39.5c0,1.8,1.5,3.3,3.4,3.3h21.9v156.7c0,1.8,1.5,3.3,3.3,3.3h45.7c1.8,0,3.3-1.5,3.3-3.3V977.1h42.6
	l65.3,156.6c-7.4,16.5-14.7,19.7-24.7,19.7c-8,0-16.5-2.4-25.2-7.1c-0.8-0.4-1.8-0.5-2.7-0.3c-0.9,0.3-1.6,1-2,1.8l-15.5,34
	c-0.7,1.6-0.1,3.5,1.4,4.3c16.2,8.8,30.7,12.5,48.8,12.5c33.7,0,52.4-15.7,68.8-58l79.2-204.8c0.4-1,0.3-2.2-0.4-3.1
	c-0.6-0.9-1.6-1.5-2.7-1.5H1863c-1.4,0-2.7,0.9-3.2,2.2l-48.7,139.1l-53.4-139.2c-0.5-1.3-1.7-2.2-3.1-2.2L1676.7,931.4
	L1676.7,931.4z"/>
<path fill="#485AFF" d="M1575.2,931.2h-45.7c-1.8,0-3.3,1.5-3.3,3.3v199.3c0,1.8,1.5,3.3,3.3,3.3h45.7c1.8,0,3.3-1.5,3.3-3.3V934.5
	C1578.5,932.7,1577,931.2,1575.2,931.2L1575.2,931.2z"/>
<path fill="#485AFF" d="M1552.6,840.4c-18.1,0-32.8,14.6-32.8,32.7c0,18.1,14.7,32.8,32.8,32.8c18.1,0,32.8-14.7,32.8-32.8
	C1585.3,855.1,1570.7,840.4,1552.6,840.4L1552.6,840.4z"/>
<path fill="#485AFF" d="M1952.7,995.2c-18.1,0-32.1-14.5-32.1-32.1s14.2-32.3,32.3-32.3c18.1,0,32.1,14.5,32.1,32.1
	C1985,980.5,1970.8,995.2,1952.7,995.2L1952.7,995.2z M1952.9,934c-16.5,0-28.9,13.1-28.9,29.1c0,16,12.4,28.9,28.8,28.9
	c16.5,0,28.9-13.1,28.9-29.1C1981.6,946.9,1969.3,934,1952.9,934L1952.9,934z M1960,966.2l9.1,12.7h-7.7l-8.2-11.7h-7v11.7h-6.4
	v-33.7h15c7.8,0,13,4,13,10.8C1967.9,961.5,1964.6,964.9,1960,966.2L1960,966.2z M1954.6,951h-8.4v10.7h8.4c4.2,0,6.7-2,6.7-5.3
	C1961.2,952.9,1958.7,951,1954.6,951L1954.6,951z"/>
</svg>
